<?xml version="1.0" standalone="no"?>
 <!DOCTYPE svg PUBLIC "-//W3C//DTD SVG 1.1//EN" 
 "http://www.w3.org/Graphics/SVG/1.1/DTD/svg11.dtd"> 
<svg xmlns="http://www.w3.org/2000/svg" version="1.1" 
    width="41.9989cm" height="29.7002cm" viewBox="0 0 165350 116930 ">
<title>SVG Picture created as Lixeira-F_SilkS.svg date 2015/07/27 20:23:15 </title>
  <desc>Picture generated by PCBNEW </desc>
<g style="fill:#000000; fill-opacity:1;stroke:#000000; stroke-opacity:1;
stroke-linecap:round; stroke-linejoin:round; "
 transform="translate(0 0) scale(1 1)">
</g>
<g style="fill:#000000; fill-opacity:0.0; 
stroke:#000000; stroke-width:39.3701; stroke-opacity:1; 
stroke-linecap:round; stroke-linejoin:round;">
<path d="M4000 4000
L161350 4000
L161350 112930
L4000 112930
L4000 4000
" />
<path d="M4700 4700
L160650 4700
L160650 112230
L4700 112230
L4700 4700
" />
<path d="M26470 4000
L26470 4700
" />
<path d="M15382 4552
L15097 4552
" />
<path d="M15240 4552
L15240 4052
L15192 4123
L15144 4171
L15097 4195
" />
<path d="M26470 112930
L26470 112230
" />
<path d="M15382 112782
L15097 112782
" />
<path d="M15240 112782
L15240 112282
L15192 112353
L15144 112401
L15097 112425
" />
<path d="M48940 4000
L48940 4700
" />
<path d="M37567 4100
L37590 4076
L37638 4052
L37757 4052
L37805 4076
L37829 4100
L37852 4147
L37852 4195
L37829 4266
L37543 4552
L37852 4552
" />
<path d="M48940 112930
L48940 112230
" />
<path d="M37567 112330
L37590 112306
L37638 112282
L37757 112282
L37805 112306
L37829 112330
L37852 112377
L37852 112425
L37829 112496
L37543 112782
L37852 112782
" />
<path d="M71410 4000
L71410 4700
" />
<path d="M60013 4052
L60322 4052
L60156 4242
L60227 4242
L60275 4266
L60299 4290
L60322 4338
L60322 4457
L60299 4504
L60275 4528
L60227 4552
L60084 4552
L60037 4528
L60013 4504
" />
<path d="M71410 112930
L71410 112230
" />
<path d="M60013 112282
L60322 112282
L60156 112472
L60227 112472
L60275 112496
L60299 112520
L60322 112568
L60322 112687
L60299 112734
L60275 112758
L60227 112782
L60084 112782
L60037 112758
L60013 112734
" />
<path d="M93880 4000
L93880 4700
" />
<path d="M82745 4219
L82745 4552
" />
<path d="M82626 4028
L82507 4385
L82816 4385
" />
<path d="M93880 112930
L93880 112230
" />
<path d="M82745 112449
L82745 112782
" />
<path d="M82626 112258
L82507 112615
L82816 112615
" />
<path d="M116350 4000
L116350 4700
" />
<path d="M105239 4052
L105000 4052
L104977 4290
L105000 4266
L105048 4242
L105167 4242
L105215 4266
L105239 4290
L105262 4338
L105262 4457
L105239 4504
L105215 4528
L105167 4552
L105048 4552
L105000 4528
L104977 4504
" />
<path d="M116350 112930
L116350 112230
" />
<path d="M105239 112282
L105000 112282
L104977 112520
L105000 112496
L105048 112472
L105167 112472
L105215 112496
L105239 112520
L105262 112568
L105262 112687
L105239 112734
L105215 112758
L105167 112782
L105048 112782
L105000 112758
L104977 112734
" />
<path d="M138820 4000
L138820 4700
" />
<path d="M127685 4052
L127590 4052
L127542 4076
L127518 4100
L127470 4171
L127447 4266
L127447 4457
L127470 4504
L127494 4528
L127542 4552
L127637 4552
L127685 4528
L127709 4504
L127732 4457
L127732 4338
L127709 4290
L127685 4266
L127637 4242
L127542 4242
L127494 4266
L127470 4290
L127447 4338
" />
<path d="M138820 112930
L138820 112230
" />
<path d="M127685 112282
L127590 112282
L127542 112306
L127518 112330
L127470 112401
L127447 112496
L127447 112687
L127470 112734
L127494 112758
L127542 112782
L127637 112782
L127685 112758
L127709 112734
L127732 112687
L127732 112568
L127709 112520
L127685 112496
L127637 112472
L127542 112472
L127494 112496
L127470 112520
L127447 112568
" />
<path d="M149893 4052
L150226 4052
L150012 4552
" />
<path d="M149893 112282
L150226 112282
L150012 112782
" />
<path d="M4000 25780
L4700 25780
" />
<path d="M4230 14949
L4469 14949
" />
<path d="M4183 15092
L4350 14592
L4516 15092
" />
<path d="M161350 25780
L160650 25780
" />
<path d="M160880 14949
L161119 14949
" />
<path d="M160833 15092
L161000 14592
L161166 15092
" />
<path d="M4000 47560
L4700 47560
" />
<path d="M4385 36610
L4457 36634
L4480 36658
L4504 36705
L4504 36777
L4480 36824
L4457 36848
L4409 36872
L4219 36872
L4219 36372
L4385 36372
L4433 36396
L4457 36420
L4480 36467
L4480 36515
L4457 36562
L4433 36586
L4385 36610
L4219 36610
" />
<path d="M161350 47560
L160650 47560
" />
<path d="M161035 36610
L161107 36634
L161130 36658
L161154 36705
L161154 36777
L161130 36824
L161107 36848
L161059 36872
L160869 36872
L160869 36372
L161035 36372
L161083 36396
L161107 36420
L161130 36467
L161130 36515
L161107 36562
L161083 36586
L161035 36610
L160869 36610
" />
<path d="M4000 69340
L4700 69340
" />
<path d="M4504 58604
L4480 58628
L4409 58652
L4361 58652
L4290 58628
L4242 58580
L4219 58533
L4195 58438
L4195 58366
L4219 58271
L4242 58223
L4290 58176
L4361 58152
L4409 58152
L4480 58176
L4504 58200
" />
<path d="M161350 69340
L160650 69340
" />
<path d="M161154 58604
L161130 58628
L161059 58652
L161011 58652
L160940 58628
L160892 58580
L160869 58533
L160845 58438
L160845 58366
L160869 58271
L160892 58223
L160940 58176
L161011 58152
L161059 58152
L161130 58176
L161154 58200
" />
<path d="M4000 91120
L4700 91120
" />
<path d="M4219 80432
L4219 79932
L4338 79932
L4409 79956
L4457 80003
L4480 80051
L4504 80146
L4504 80218
L4480 80313
L4457 80360
L4409 80408
L4338 80432
L4219 80432
" />
<path d="M161350 91120
L160650 91120
" />
<path d="M160869 80432
L160869 79932
L160988 79932
L161059 79956
L161107 80003
L161130 80051
L161154 80146
L161154 80218
L161130 80313
L161107 80360
L161059 80408
L160988 80432
L160869 80432
" />
<path d="M4242 101950
L4409 101950
" />
<path d="M4480 102212
L4242 102212
L4242 101712
L4480 101712
" />
<path d="M160892 101950
L161059 101950
" />
<path d="M161130 102212
L160892 102212
L160892 101712
L161130 101712
" />
<path d="M127800 110672
L127875 110072
L128017 110072
L128100 110101
L128150 110158
L128171 110215
L128185 110330
L128175 110415
L128132 110530
L128096 110587
L128032 110644
L127942 110672
L127800 110672
" />
<path d="M128657 110672
L128696 110358
L128675 110301
L128621 110272
L128507 110272
L128446 110301
" />
<path d="M128660 110644
L128600 110672
L128457 110672
L128403 110644
L128382 110587
L128389 110530
L128425 110472
L128485 110444
L128628 110444
L128689 110415
" />
<path d="M128907 110272
L129135 110272
" />
<path d="M129017 110072
L128953 110587
L128975 110644
L129028 110672
L129085 110672
" />
<path d="M129517 110644
L129457 110672
L129342 110672
L129289 110644
L129267 110587
L129296 110358
L129332 110301
L129392 110272
L129507 110272
L129560 110301
L129582 110358
L129575 110415
L129282 110472
" />
<path d="M129807 110615
L129832 110644
L129800 110672
L129775 110644
L129807 110615
L129800 110672
" />
<path d="M129846 110301
L129871 110330
L129839 110358
L129814 110330
L129846 110301
L129839 110358
" />
<path d="M130582 110130
L130614 110101
L130675 110072
L130817 110072
L130871 110101
L130896 110130
L130917 110187
L130910 110244
L130871 110330
L130485 110672
L130857 110672
" />
<path d="M131132 110072
L131532 110072
L131200 110672
" />
<path d="M132192 110272
L132128 110787
L132092 110844
L132032 110872
L132003 110872
" />
<path d="M132217 110072
L132185 110101
L132210 110130
L132242 110101
L132217 110072
L132210 110130
" />
<path d="M132735 110272
L132685 110672
" />
<path d="M132478 110272
L132439 110587
L132460 110644
L132514 110672
L132600 110672
L132660 110644
L132692 110615
" />
<path d="M133057 110672
L133003 110644
L132982 110587
L133046 110072
" />
<path d="M133782 110130
L133814 110101
L133875 110072
L134017 110072
L134071 110101
L134096 110130
L134117 110187
L134110 110244
L134071 110330
L133685 110672
L134057 110672
" />
<path d="M134503 110072
L134560 110072
L134614 110101
L134639 110130
L134660 110187
L134675 110301
L134657 110444
L134614 110558
L134578 110615
L134546 110644
L134485 110672
L134428 110672
L134375 110644
L134350 110615
L134328 110558
L134314 110444
L134332 110301
L134375 110187
L134410 110130
L134442 110101
L134503 110072
" />
<path d="M135200 110672
L134857 110672
" />
<path d="M135028 110672
L135103 110072
L135035 110158
L134971 110215
L134910 110244
" />
<path d="M135817 110072
L135532 110072
L135467 110358
L135500 110330
L135560 110301
L135703 110301
L135757 110330
L135782 110358
L135803 110415
L135785 110558
L135750 110615
L135717 110644
L135657 110672
L135514 110672
L135460 110644
L135435 110615
" />
<path d="M119392 111872
L119392 111272
" />
<path d="M119735 111872
L119478 111530
" />
<path d="M119735 111272
L119392 111615
" />
<path d="M119992 111872
L119992 111472
" />
<path d="M119992 111272
L119964 111301
L119992 111330
L120021 111301
L119992 111272
L119992 111330
" />
<path d="M120621 111815
L120592 111844
L120507 111872
L120450 111872
L120364 111844
L120307 111787
L120278 111730
L120250 111615
L120250 111530
L120278 111415
L120307 111358
L120364 111301
L120450 111272
L120507 111272
L120592 111301
L120621 111330
" />
<path d="M121135 111872
L121135 111558
L121107 111501
L121050 111472
L120935 111472
L120878 111501
" />
<path d="M121135 111844
L121078 111872
L120935 111872
L120878 111844
L120850 111787
L120850 111730
L120878 111672
L120935 111644
L121078 111644
L121135 111615
" />
<path d="M121678 111872
L121678 111272
" />
<path d="M121678 111844
L121621 111872
L121507 111872
L121450 111844
L121421 111815
L121392 111758
L121392 111587
L121421 111530
L121450 111501
L121507 111472
L121621 111472
L121678 111501
" />
<path d="M122421 111558
L122621 111558
" />
<path d="M122707 111872
L122421 111872
L122421 111272
L122707 111272
" />
<path d="M122964 111815
L122992 111844
L122964 111872
L122935 111844
L122964 111815
L122964 111872
" />
<path d="M123249 111872
L123249 111272
L123392 111272
L123478 111301
L123535 111358
L123564 111415
L123592 111530
L123592 111615
L123564 111730
L123535 111787
L123478 111844
L123392 111872
L123249 111872
" />
<path d="M123849 111815
L123878 111844
L123849 111872
L123821 111844
L123849 111815
L123849 111872
" />
<path d="M124107 111701
L124392 111701
" />
<path d="M124049 111872
L124249 111272
L124449 111872
" />
<path d="M124649 111815
L124678 111844
L124649 111872
L124621 111844
L124649 111815
L124649 111872
" />
<path d="M152942 110672
L152778 110387
" />
<path d="M152600 110672
L152675 110072
L152903 110072
L152957 110101
L152982 110130
L153003 110187
L152992 110272
L152957 110330
L152925 110358
L152864 110387
L152635 110387
" />
<path d="M153432 110644
L153371 110672
L153257 110672
L153203 110644
L153182 110587
L153210 110358
L153246 110301
L153307 110272
L153421 110272
L153475 110301
L153496 110358
L153489 110415
L153196 110472
" />
<path d="M153707 110272
L153800 110672
L153992 110272
" />
<path d="M154178 110615
L154203 110644
L154171 110672
L154146 110644
L154178 110615
L154171 110672
" />
<path d="M154217 110301
L154242 110330
L154210 110358
L154185 110330
L154217 110301
L154210 110358
" />
<path d="M119364 110644
L119450 110672
L119592 110672
L119650 110644
L119678 110615
L119707 110558
L119707 110501
L119678 110444
L119650 110415
L119592 110387
L119478 110358
L119421 110330
L119392 110301
L119364 110244
L119364 110187
L119392 110130
L119421 110101
L119478 110072
L119621 110072
L119707 110101
" />
<path d="M119964 110672
L119964 110272
" />
<path d="M119964 110072
L119935 110101
L119964 110130
L119992 110101
L119964 110072
L119964 110130
" />
<path d="M120192 110272
L120507 110272
L120192 110672
L120507 110672
" />
<path d="M120964 110644
L120907 110672
L120792 110672
L120735 110644
L120707 110587
L120707 110358
L120735 110301
L120792 110272
L120907 110272
L120964 110301
L120992 110358
L120992 110415
L120707 110472
" />
<path d="M121250 110615
L121278 110644
L121250 110672
L121221 110644
L121250 110615
L121250 110672
" />
<path d="M121250 110301
L121278 110330
L121250 110358
L121221 110330
L121250 110301
L121250 110358
" />
<path d="M121964 110501
L122250 110501
" />
<path d="M121907 110672
L122107 110072
L122307 110672
" />
<path d="M122450 110072
L122821 110072
L122621 110301
L122707 110301
L122764 110330
L122792 110358
L122821 110415
L122821 110558
L122792 110615
L122764 110644
L122707 110672
L122535 110672
L122478 110644
L122450 110615
" />
<path d="M152592 111872
L152592 111272
" />
<path d="M153135 111872
L153135 111272
" />
<path d="M153135 111844
L153078 111872
L152964 111872
L152907 111844
L152878 111815
L152850 111758
L152850 111587
L152878 111530
L152907 111501
L152964 111472
L153078 111472
L153135 111501
" />
<path d="M153421 111815
L153450 111844
L153421 111872
L153392 111844
L153421 111815
L153421 111872
" />
<path d="M153421 111501
L153450 111530
L153421 111558
L153392 111530
L153421 111501
L153421 111558
" />
<path d="M154478 111872
L154135 111872
" />
<path d="M154307 111872
L154307 111272
L154249 111358
L154192 111415
L154135 111444
" />
<path d="M155164 111244
L154650 112015
" />
<path d="M155678 111872
L155335 111872
" />
<path d="M155507 111872
L155507 111272
L155449 111358
L155392 111415
L155335 111444
" />
<path d="M119389 108872
L119732 108872
" />
<path d="M119485 109472
L119560 108872
" />
<path d="M119857 109472
L119907 109072
" />
<path d="M119932 108872
L119900 108901
L119925 108930
L119957 108901
L119932 108872
L119925 108930
" />
<path d="M120107 109072
L120335 109072
" />
<path d="M120217 108872
L120153 109387
L120175 109444
L120228 109472
L120285 109472
" />
<path d="M120571 109472
L120517 109444
L120496 109387
L120560 108872
" />
<path d="M121032 109444
L120971 109472
L120857 109472
L120803 109444
L120782 109387
L120810 109158
L120846 109101
L120907 109072
L121021 109072
L121075 109101
L121096 109158
L121089 109215
L120796 109272
" />
<path d="M121321 109415
L121346 109444
L121314 109472
L121289 109444
L121321 109415
L121314 109472
" />
<path d="M121360 109101
L121385 109130
L121353 109158
L121328 109130
L121360 109101
L121353 109158
" />
<path d="M119592 106758
L119392 106758
" />
<path d="M119392 107072
L119392 106472
L119678 106472
" />
<path d="M119907 107072
L119907 106672
" />
<path d="M119907 106472
L119878 106501
L119907 106530
L119935 106501
L119907 106472
L119907 106530
" />
<path d="M120278 107072
L120221 107044
L120192 106987
L120192 106472
" />
<path d="M120735 107044
L120678 107072
L120564 107072
L120507 107044
L120478 106987
L120478 106758
L120507 106701
L120564 106672
L120678 106672
L120735 106701
L120764 106758
L120764 106815
L120478 106872
" />
<path d="M121021 107015
L121050 107044
L121021 107072
L120992 107044
L121021 107015
L121021 107072
" />
<path d="M121021 106701
L121050 106730
L121021 106758
L120992 106730
L121021 106701
L121021 106758
" />
<path d="M122050 107072
L121764 107072
L121764 106472
" />
<path d="M122250 107072
L122250 106672
" />
<path d="M122250 106472
L122221 106501
L122250 106530
L122278 106501
L122250 106472
L122250 106530
" />
<path d="M122478 107072
L122792 106672
" />
<path d="M122478 106672
L122792 107072
" />
<path d="M123250 107044
L123192 107072
L123078 107072
L123021 107044
L122992 106987
L122992 106758
L123021 106701
L123078 106672
L123192 106672
L123250 106701
L123278 106758
L123278 106815
L122992 106872
" />
<path d="M123535 107072
L123535 106672
" />
<path d="M123535 106472
L123507 106501
L123535 106530
L123564 106501
L123535 106472
L123535 106530
" />
<path d="M123821 107072
L123821 106672
" />
<path d="M123821 106787
L123850 106730
L123878 106701
L123935 106672
L123992 106672
" />
<path d="M124450 107072
L124450 106758
L124421 106701
L124364 106672
L124250 106672
L124192 106701
" />
<path d="M124450 107044
L124392 107072
L124250 107072
L124192 107044
L124164 106987
L124164 106930
L124192 106872
L124250 106844
L124392 106844
L124450 106815
" />
<path d="M124735 107015
L124764 107044
L124735 107072
L124707 107044
L124735 107015
L124735 107072
" />
<path d="M125021 107072
L125021 106472
" />
<path d="M125078 106844
L125250 107072
" />
<path d="M125250 106672
L125021 106901
" />
<path d="M125507 107072
L125507 106672
" />
<path d="M125507 106472
L125478 106501
L125507 106530
L125535 106501
L125507 106472
L125507 106530
" />
<path d="M126049 107044
L125992 107072
L125878 107072
L125821 107044
L125792 107015
L125764 106958
L125764 106787
L125792 106730
L125821 106701
L125878 106672
L125992 106672
L126049 106701
" />
<path d="M126564 107072
L126564 106758
L126535 106701
L126478 106672
L126364 106672
L126307 106701
" />
<path d="M126564 107044
L126507 107072
L126364 107072
L126307 107044
L126278 106987
L126278 106930
L126307 106872
L126364 106844
L126507 106844
L126564 106815
" />
<path d="M127107 107072
L127107 106472
" />
<path d="M127107 107044
L127049 107072
L126935 107072
L126878 107044
L126849 107015
L126821 106958
L126821 106787
L126849 106730
L126878 106701
L126935 106672
L127049 106672
L127107 106701
" />
<path d="M127249 107130
L127707 107130
" />
<path d="M127849 106672
L127849 107272
" />
<path d="M127849 106701
L127907 106672
L128021 106672
L128078 106701
L128107 106730
L128135 106787
L128135 106958
L128107 107015
L128078 107044
L128021 107072
L127907 107072
L127849 107044
" />
<path d="M128649 107044
L128592 107072
L128478 107072
L128421 107044
L128392 107015
L128364 106958
L128364 106787
L128392 106730
L128421 106701
L128478 106672
L128592 106672
L128649 106701
" />
<path d="M128907 107072
L128907 106472
" />
<path d="M128907 106701
L128964 106672
L129078 106672
L129135 106701
L129164 106730
L129192 106787
L129192 106958
L129164 107015
L129135 107044
L129078 107072
L128964 107072
L128907 107044
" />
<path d="M119364 108244
L119450 108272
L119592 108272
L119650 108244
L119678 108215
L119707 108158
L119707 108101
L119678 108044
L119650 108015
L119592 107987
L119478 107958
L119421 107930
L119392 107901
L119364 107844
L119364 107787
L119392 107730
L119421 107701
L119478 107672
L119621 107672
L119707 107701
" />
<path d="M119964 108272
L119964 107672
" />
<path d="M120221 108272
L120221 107958
L120192 107901
L120135 107872
L120050 107872
L119992 107901
L119964 107930
" />
<path d="M120735 108244
L120678 108272
L120564 108272
L120507 108244
L120478 108187
L120478 107958
L120507 107901
L120564 107872
L120678 107872
L120735 107901
L120764 107958
L120764 108015
L120478 108072
" />
<path d="M121250 108244
L121192 108272
L121078 108272
L121021 108244
L120992 108187
L120992 107958
L121021 107901
L121078 107872
L121192 107872
L121250 107901
L121278 107958
L121278 108015
L120992 108072
" />
<path d="M121450 107872
L121678 107872
" />
<path d="M121535 107672
L121535 108187
L121564 108244
L121621 108272
L121678 108272
" />
<path d="M121878 108215
L121907 108244
L121878 108272
L121850 108244
L121878 108215
L121878 108272
" />
<path d="M121878 107901
L121907 107930
L121878 107958
L121850 107930
L121878 107901
L121878 107958
" />
<path d="M118650 106230
L118650 112230
" />
<path d="M118650 106230
L160650 106230
" />
<path d="M118650 106230
L160650 106230
" />
<path d="M118650 108630
L160650 108630
" />
<path d="M151850 109830
L151850 112230
" />
<path d="M118650 111030
L160650 111030
" />
<path d="M118650 109830
L160650 109830
" />
<path d="M125250 109830
L125250 111030
" />
</g>
<g style="fill:#00A0A0; fill-opacity:0.0; 
stroke:#00A0A0; stroke-width:80; stroke-opacity:1; 
stroke-linecap:round; stroke-linejoin:round;">
<path d="M91111 47650
L91073 47630
L91035 47592
L90978 47535
L90940 47516
L90902 47516
" />
<path d="M90921 47611
L90883 47592
L90845 47554
L90826 47478
L90826 47345
L90845 47269
L90883 47230
L90921 47211
L90997 47211
L91035 47230
L91073 47269
L91092 47345
L91092 47478
L91073 47554
L91035 47592
L90997 47611
L90921 47611
" />
<path d="M91473 47611
L91245 47611
" />
<path d="M91359 47611
L91359 47211
L91321 47269
L91283 47307
L91245 47326
" />
<path d="M91457 49202
L91514 49221
L91533 49240
L91552 49278
L91552 49335
L91533 49373
L91514 49392
L91476 49411
L91323 49411
L91323 49011
L91457 49011
L91495 49030
L91514 49050
L91533 49088
L91533 49126
L91514 49164
L91495 49183
L91457 49202
L91323 49202
" />
<path d="M91952 49373
L91933 49392
L91876 49411
L91838 49411
L91780 49392
L91742 49354
L91723 49316
L91704 49240
L91704 49183
L91723 49107
L91742 49069
L91780 49030
L91838 49011
L91876 49011
L91933 49030
L91952 49050
" />
<path d="M92085 49011
L92333 49011
L92200 49164
L92257 49164
L92295 49183
L92314 49202
L92333 49240
L92333 49335
L92314 49373
L92295 49392
L92257 49411
L92142 49411
L92104 49392
L92085 49373
" />
<path d="M92580 49011
L92619 49011
L92657 49030
L92676 49050
L92695 49088
L92714 49164
L92714 49259
L92695 49335
L92676 49373
L92657 49392
L92619 49411
L92580 49411
L92542 49392
L92523 49373
L92504 49335
L92485 49259
L92485 49164
L92504 49088
L92523 49050
L92542 49030
L92580 49011
" />
<path d="M92847 49011
L93114 49011
L92942 49411
" />
<path d="M94772 57345
L94510 57511
" />
<path d="M94772 57630
L94222 57630
L94222 57440
L94248 57392
L94275 57369
L94327 57345
L94405 57345
L94458 57369
L94484 57392
L94510 57440
L94510 57630
" />
<path d="M92722 57345
L92460 57511
" />
<path d="M92722 57630
L92172 57630
L92172 57440
L92198 57392
L92225 57369
L92277 57345
L92355 57345
L92408 57369
L92434 57392
L92460 57440
L92460 57630
" />
<path d="M90772 57345
L90510 57511
" />
<path d="M90772 57630
L90222 57630
L90222 57440
L90248 57392
L90275 57369
L90327 57345
L90405 57345
L90458 57369
L90484 57392
L90510 57440
L90510 57630
" />
<path d="M91154 45272
L90988 45010
" />
<path d="M90869 45272
L90869 44722
L91059 44722
L91107 44748
L91130 44775
L91154 44827
L91154 44905
L91130 44958
L91107 44984
L91059 45010
L90869 45010
" />
<path d="M80772 42345
L80510 42511
" />
<path d="M80772 42630
L80222 42630
L80222 42440
L80248 42392
L80275 42369
L80327 42345
L80405 42345
L80458 42369
L80484 42392
L80510 42440
L80510 42630
" />
</g>
<g style="fill:#00A0A0; fill-opacity:0.0; 
stroke:#00A0A0; stroke-width:50; stroke-opacity:1; 
stroke-linecap:round; stroke-linejoin:round;">
<path d="M80352 39081
L80352 38881
L80428 38881
L80447 38891
L80457 38901
L80466 38920
L80466 38948
L80457 38967
L80447 38977
L80428 38986
L80352 38986
" />
<path d="M80542 38901
L80552 38891
L80571 38881
L80619 38881
L80638 38891
L80647 38901
L80657 38920
L80657 38939
L80647 38967
L80533 39081
L80657 39081
" />
</g>
<g style="fill:#00A0A0; fill-opacity:0.0; 
stroke:#00A0A0; stroke-width:47.2441; stroke-opacity:1; 
stroke-linecap:round; stroke-linejoin:round;">
<path d="M92287 63131
L92287 62816
" />
<path d="M92467 63131
L92332 62951
" />
<path d="M92467 62816
L92287 62996
" />
<path d="M92587 62846
L92602 62831
L92632 62816
L92707 62816
L92737 62831
L92752 62846
L92767 62876
L92767 62906
L92752 62951
L92572 63131
L92767 63131
" />
<path d="M91832 66097
L91817 66112
L91772 66127
L91742 66127
L91697 66112
L91667 66082
L91652 66052
L91637 65992
L91637 65947
L91652 65887
L91667 65857
L91697 65827
L91742 65812
L91772 65812
L91817 65827
L91832 65842
" />
<path d="M92027 65812
L92087 65812
L92117 65827
L92147 65857
L92162 65917
L92162 66022
L92147 66082
L92117 66112
L92087 66127
L92027 66127
L91997 66112
L91967 66082
L91952 66022
L91952 65917
L91967 65857
L91997 65827
L92027 65812
" />
<path d="M92297 66127
L92297 65812
L92477 66127
L92477 65812
" />
<path d="M92627 66127
L92627 65812
L92807 66127
L92807 65812
" />
<path d="M92882 66157
L93122 66157
" />
<path d="M93167 65812
L93362 65812
L93257 65932
L93302 65932
L93332 65947
L93347 65962
L93362 65992
L93362 66067
L93347 66097
L93332 66112
L93302 66127
L93212 66127
L93182 66112
L93167 66097
" />
<path d="M83787 60631
L83787 60316
" />
<path d="M83967 60631
L83832 60451
" />
<path d="M83967 60316
L83787 60496
" />
<path d="M84267 60631
L84087 60631
" />
<path d="M84177 60631
L84177 60316
L84147 60361
L84117 60391
L84087 60406
" />
<path d="M83332 63597
L83317 63612
L83272 63627
L83242 63627
L83197 63612
L83167 63582
L83152 63552
L83137 63492
L83137 63447
L83152 63387
L83167 63357
L83197 63327
L83242 63312
L83272 63312
L83317 63327
L83332 63342
" />
<path d="M83527 63312
L83587 63312
L83617 63327
L83647 63357
L83662 63417
L83662 63522
L83647 63582
L83617 63612
L83587 63627
L83527 63627
L83497 63612
L83467 63582
L83452 63522
L83452 63417
L83467 63357
L83497 63327
L83527 63312
" />
<path d="M83797 63627
L83797 63312
L83977 63627
L83977 63312
" />
<path d="M84127 63627
L84127 63312
L84307 63627
L84307 63312
" />
<path d="M84382 63657
L84622 63657
" />
<path d="M84667 63312
L84862 63312
L84757 63432
L84802 63432
L84832 63447
L84847 63462
L84862 63492
L84862 63567
L84847 63597
L84832 63612
L84802 63627
L84712 63627
L84682 63612
L84667 63597
" />
<path d="M71092 54732
L70777 54732
L70777 54612
L70792 54582
L70807 54567
L70837 54552
L70882 54552
L70912 54567
L70927 54582
L70942 54612
L70942 54732
" />
<path d="M71092 54252
L71092 54432
" />
<path d="M71092 54342
L70777 54342
L70822 54372
L70852 54402
L70867 54432
" />
<path d="M74097 55167
L74112 55182
L74127 55227
L74127 55257
L74112 55302
L74082 55332
L74052 55347
L73992 55362
L73947 55362
L73887 55347
L73857 55332
L73827 55302
L73812 55257
L73812 55227
L73827 55182
L73842 55167
" />
<path d="M73812 54972
L73812 54912
L73827 54882
L73857 54852
L73917 54837
L74022 54837
L74082 54852
L74112 54882
L74127 54912
L74127 54972
L74112 55002
L74082 55032
L74022 55047
L73917 55047
L73857 55032
L73827 55002
L73812 54972
" />
<path d="M74127 54702
L73812 54702
L74127 54522
L73812 54522
" />
<path d="M74127 54372
L73812 54372
L74127 54192
L73812 54192
" />
<path d="M74157 54117
L74157 53877
" />
<path d="M73842 53817
L73827 53802
L73812 53772
L73812 53697
L73827 53667
L73842 53652
L73872 53637
L73902 53637
L73947 53652
L74127 53832
L74127 53637
" />
</g>
<g style="fill:#00A0A0; fill-opacity:0.0; 
stroke:#00A0A0; stroke-width:35; stroke-opacity:1; 
stroke-linecap:round; stroke-linejoin:round;">
<path d="M86021 53521
L85721 53521
L85721 53450
L85735 53407
L85764 53378
L85792 53364
L85850 53350
L85892 53350
L85950 53364
L85978 53378
L86007 53407
L86021 53450
L86021 53521
" />
<path d="M86021 53064
L86021 53235
" />
<path d="M86021 53150
L85721 53150
L85764 53178
L85792 53207
L85807 53235
" />
<path d="M88121 54192
L88121 54335
L87821 54335
" />
<path d="M87964 54092
L87964 53992
" />
<path d="M88121 53950
L88121 54092
L87821 54092
L87821 53950
" />
<path d="M88121 53821
L87821 53821
L87821 53750
L87835 53707
L87864 53678
L87892 53664
L87950 53650
L87992 53650
L88050 53664
L88078 53678
L88107 53707
L88121 53750
L88121 53821
" />
<path d="M91021 53521
L90721 53521
L90721 53450
L90735 53407
L90764 53378
L90792 53364
L90850 53350
L90892 53350
L90950 53364
L90978 53378
L91007 53407
L91021 53450
L91021 53521
" />
<path d="M90721 53250
L90721 53064
L90835 53164
L90835 53121
L90850 53092
L90864 53078
L90892 53064
L90964 53064
L90992 53078
L91007 53092
L91021 53121
L91021 53207
L91007 53235
L90992 53250
" />
<path d="M93121 54192
L93121 54335
L92821 54335
" />
<path d="M92964 54092
L92964 53992
" />
<path d="M93121 53950
L93121 54092
L92821 54092
L92821 53950
" />
<path d="M93121 53821
L92821 53821
L92821 53750
L92835 53707
L92864 53678
L92892 53664
L92950 53650
L92992 53650
L93050 53664
L93078 53678
L93107 53707
L93121 53750
L93121 53821
" />
<path d="M88521 53521
L88221 53521
L88221 53450
L88235 53407
L88264 53378
L88292 53364
L88350 53350
L88392 53350
L88450 53364
L88478 53378
L88507 53407
L88521 53450
L88521 53521
" />
<path d="M88250 53235
L88235 53221
L88221 53192
L88221 53121
L88235 53092
L88250 53078
L88278 53064
L88307 53064
L88350 53078
L88521 53250
L88521 53064
" />
<path d="M90621 54192
L90621 54335
L90321 54335
" />
<path d="M90464 54092
L90464 53992
" />
<path d="M90621 53950
L90621 54092
L90321 54092
L90321 53950
" />
<path d="M90621 53821
L90321 53821
L90321 53750
L90335 53707
L90364 53678
L90392 53664
L90450 53650
L90492 53650
L90550 53664
L90578 53678
L90607 53707
L90621 53750
L90621 53821
" />
<path d="M93521 53521
L93221 53521
L93221 53450
L93235 53407
L93264 53378
L93292 53364
L93350 53350
L93392 53350
L93450 53364
L93478 53378
L93507 53407
L93521 53450
L93521 53521
" />
<path d="M93321 53092
L93521 53092
" />
<path d="M93207 53164
L93421 53235
L93421 53050
" />
<path d="M95621 54192
L95621 54335
L95321 54335
" />
<path d="M95464 54092
L95464 53992
" />
<path d="M95621 53950
L95621 54092
L95321 54092
L95321 53950
" />
<path d="M95621 53821
L95321 53821
L95321 53750
L95335 53707
L95364 53678
L95392 53664
L95450 53650
L95492 53650
L95550 53664
L95578 53678
L95607 53707
L95621 53750
L95621 53821
" />
</g>
<g style="fill:#00A0A0; fill-opacity:0.0; 
stroke:#00A0A0; stroke-width:120; stroke-opacity:1; 
stroke-linecap:round; stroke-linejoin:round;">
<path d="M71202 61592
L71035 61307
" />
<path d="M70916 61592
L70916 60992
L71107 60992
L71154 61021
L71178 61050
L71202 61107
L71202 61192
L71178 61250
L71154 61278
L71107 61307
L70916 61307
" />
<path d="M71345 60992
L71511 61592
L71678 60992
" />
<path d="M72107 61592
L71821 61592
" />
<path d="M71964 61592
L71964 60992
L71916 61078
L71869 61135
L71821 61164
" />
<path d="M70966 60742
L70966 60142
L71157 60142
L71204 60171
L71228 60200
L71252 60257
L71252 60342
L71228 60400
L71204 60428
L71157 60457
L70966 60457
" />
<path d="M71561 60142
L71657 60142
L71704 60171
L71752 60228
L71776 60342
L71776 60542
L71752 60657
L71704 60714
L71657 60742
L71561 60742
L71514 60714
L71466 60657
L71442 60542
L71442 60342
L71466 60228
L71514 60171
L71561 60142
" />
<path d="M71919 60142
L72204 60142
" />
<path d="M72061 60742
L72061 60142
" />
</g>
<g style="fill:#00A0A0; fill-opacity:0.0; 
stroke:#00A0A0; stroke-width:80; stroke-opacity:1; 
stroke-linecap:round; stroke-linejoin:round;">
<path d="M71333 44523
L71314 44542
L71257 44561
L71219 44561
L71161 44542
L71123 44504
L71104 44466
L71085 44390
L71085 44333
L71104 44257
L71123 44219
L71161 44180
L71219 44161
L71257 44161
L71314 44180
L71333 44200
" />
<path d="M71714 44561
L71485 44561
" />
<path d="M71600 44561
L71600 44161
L71561 44219
L71523 44257
L71485 44276
" />
</g>
<g style="fill:#00A0A0; fill-opacity:0.0; 
stroke:#00A0A0; stroke-width:120; stroke-opacity:1; 
stroke-linecap:round; stroke-linejoin:round;">
<path d="M92500 47000
L91000 48500
" />
<path d="M91000 48500
L91000 49000
" />
<path d="M91000 49000
L91500 49500
" />
<path d="M91500 49500
L92500 49500
" />
<path d="M92500 49500
L93500 48500
" />
<path d="M93500 48500
L93500 47500
" />
<path d="M93500 47500
L93000 47000
" />
<path d="M93000 47000
L92500 47000
" />
</g>
<g style="fill:#00A0A0; fill-opacity:0.0; 
stroke:#00A0A0; stroke-width:80; stroke-opacity:1; 
stroke-linecap:round; stroke-linejoin:round;">
<path d="M94500 59000
L94500 58800
" />
<path d="M94500 56000
L94500 56200
" />
<path d="M94500 56200
L94100 56200
" />
<path d="M94100 56200
L94100 58800
" />
<path d="M94100 58800
L94900 58800
" />
<path d="M94900 58800
L94900 56200
" />
<path d="M94900 56200
L94500 56200
" />
<path d="M94300 58800
L94100 58600
" />
<path d="M92500 59000
L92500 58800
" />
<path d="M92500 56000
L92500 56200
" />
<path d="M92500 56200
L92100 56200
" />
<path d="M92100 56200
L92100 58800
" />
<path d="M92100 58800
L92900 58800
" />
<path d="M92900 58800
L92900 56200
" />
<path d="M92900 56200
L92500 56200
" />
<path d="M92300 58800
L92100 58600
" />
<path d="M90500 59000
L90500 58800
" />
<path d="M90500 56000
L90500 56200
" />
<path d="M90500 56200
L90100 56200
" />
<path d="M90100 56200
L90100 58800
" />
<path d="M90100 58800
L90900 58800
" />
<path d="M90900 58800
L90900 56200
" />
<path d="M90900 56200
L90500 56200
" />
<path d="M90300 58800
L90100 58600
" />
<path d="M89500 45000
L89700 45000
" />
<path d="M92500 45000
L92300 45000
" />
<path d="M92300 45000
L92300 44600
" />
<path d="M92300 44600
L89700 44600
" />
<path d="M89700 44600
L89700 45400
" />
<path d="M89700 45400
L92300 45400
" />
<path d="M92300 45400
L92300 45000
" />
<path d="M89700 44800
L89900 44600
" />
<path d="M80500 44000
L80500 43800
" />
<path d="M80500 41000
L80500 41200
" />
<path d="M80500 41200
L80100 41200
" />
<path d="M80100 41200
L80100 43800
" />
<path d="M80100 43800
L80900 43800
" />
<path d="M80900 43800
L80900 41200
" />
<path d="M80900 41200
L80500 41200
" />
<path d="M80300 43800
L80100 43600
" />
</g>
<g style="fill:#00A0A0; fill-opacity:0.0; 
stroke:#00A0A0; stroke-width:50; stroke-opacity:1; 
stroke-linecap:round; stroke-linejoin:round;">
<circle cx="80500" cy="39500" r="316.228" /> 
</g>
<g style="fill:#00A0A0; fill-opacity:0.0; 
stroke:#00A0A0; stroke-width:100; stroke-opacity:1; 
stroke-linecap:round; stroke-linejoin:round;">
<path d="M91000 63250
L91000 65750
" />
<path d="M94000 63250
L94000 65750
" />
<path d="M94000 64000
L91000 64000
" />
<path d="M91000 63250
L94000 63250
" />
<path d="M94000 65750
L91000 65750
" />
<path d="M82500 60750
L82500 63250
" />
<path d="M85500 60750
L85500 63250
" />
<path d="M85500 61500
L82500 61500
" />
<path d="M82500 60750
L85500 60750
" />
<path d="M85500 63250
L82500 63250
" />
<path d="M72000 53500
L72000 55500
" />
<path d="M73750 53500
L73750 55500
" />
<path d="M71250 55500
L71250 53500
" />
<path d="M71250 55500
L73750 55500
" />
<path d="M71250 53500
L73750 53500
" />
<path d="M87500 53280
L86500 53280
" />
</g>
<g style="fill:#00A0A0; fill-opacity:0.0; 
stroke:#00A0A0; stroke-width:60; stroke-opacity:1; 
stroke-linecap:round; stroke-linejoin:round;">
<path d="M86615.9 54361 A600 600 0.0 0 0 87000 54500 " />
<path d="M87000 54499.3 A599.256 599.256 0.0 0 0 87397.9 54348.1 " />
<path d="M87000 53300.7 A599.27 599.27 0.0 0 0 86610 53445 " />
<path d="M87384.1 53439 A600 600 0.0 0 0 87000 53300 " />
<path d="M86650.7 53412.1 A600 600 0.0 0 0 86400 53900 " />
<path d="M86400 53900 A600 600 0.0 0 0 86639.7 54379.8 " />
<path d="M87599.3 53900 A599.294 599.294 0.0 0 0 87368.1 53427.1 " />
<path d="M87368.6 54373.5 A600 600 0.0 0 0 87600 53900 " />
<path d="M86750 53900 A250 250 0.0 0 0 87000 54150 " />
<path d="M86600 53900 A400 400 0.0 0 0 87000 54300 " />
<path d="M87250 53900 A250 250 0.0 0 0 87000 53650 " />
<path d="M87400 53900 A400 400 0.0 0 0 87000 53500 " />
</g>
<g style="fill:#00A0A0; fill-opacity:0.0; 
stroke:#00A0A0; stroke-width:100; stroke-opacity:1; 
stroke-linecap:round; stroke-linejoin:round;">
<path d="M86486.8 53286.3 A800 800 0.0 0 0 86200 53900 " />
<path d="M86201 53900 A799 799 0.0 0 0 86623.7 54604.8 " />
<path d="M87799 53898.6 A798.972 798.972 0.0 0 0 87515.7 53289.7 " />
<path d="M87397.6 54594.2 A800 800 0.0 0 0 87800 53900 " />
<path d="M86620.7 54604.4 A800 800 0.0 0 0 87000 54700 " />
<path d="M87000 54699.6 A799.576 799.576 0.0 0 0 87419 54581 " />
<path d="M92500 53280
L91500 53280
" />
</g>
<g style="fill:#00A0A0; fill-opacity:0.0; 
stroke:#00A0A0; stroke-width:60; stroke-opacity:1; 
stroke-linecap:round; stroke-linejoin:round;">
<path d="M91615.9 54361 A600 600 0.0 0 0 92000 54500 " />
<path d="M92000 54499.3 A599.256 599.256 0.0 0 0 92397.9 54348.1 " />
<path d="M92000 53300.7 A599.27 599.27 0.0 0 0 91610 53445 " />
<path d="M92384.1 53439 A600 600 0.0 0 0 92000 53300 " />
<path d="M91650.7 53412.1 A600 600 0.0 0 0 91400 53900 " />
<path d="M91400 53900 A600 600 0.0 0 0 91639.7 54379.8 " />
<path d="M92599.3 53900 A599.294 599.294 0.0 0 0 92368.1 53427.1 " />
<path d="M92368.6 54373.5 A600 600 0.0 0 0 92600 53900 " />
<path d="M91750 53900 A250 250 0.0 0 0 92000 54150 " />
<path d="M91600 53900 A400 400 0.0 0 0 92000 54300 " />
<path d="M92250 53900 A250 250 0.0 0 0 92000 53650 " />
<path d="M92400 53900 A400 400 0.0 0 0 92000 53500 " />
</g>
<g style="fill:#00A0A0; fill-opacity:0.0; 
stroke:#00A0A0; stroke-width:100; stroke-opacity:1; 
stroke-linecap:round; stroke-linejoin:round;">
<path d="M91486.8 53286.3 A800 800 0.0 0 0 91200 53900 " />
<path d="M91201 53900 A799 799 0.0 0 0 91623.7 54604.8 " />
<path d="M92799 53898.6 A798.972 798.972 0.0 0 0 92515.7 53289.7 " />
<path d="M92397.6 54594.2 A800 800 0.0 0 0 92800 53900 " />
<path d="M91620.7 54604.4 A800 800 0.0 0 0 92000 54700 " />
<path d="M92000 54699.6 A799.576 799.576 0.0 0 0 92419 54581 " />
<path d="M90000 53280
L89000 53280
" />
</g>
<g style="fill:#00A0A0; fill-opacity:0.0; 
stroke:#00A0A0; stroke-width:60; stroke-opacity:1; 
stroke-linecap:round; stroke-linejoin:round;">
<path d="M89115.9 54361 A600 600 0.0 0 0 89500 54500 " />
<path d="M89500 54499.3 A599.256 599.256 0.0 0 0 89897.9 54348.1 " />
<path d="M89500 53300.7 A599.27 599.27 0.0 0 0 89110 53445 " />
<path d="M89884.1 53439 A600 600 0.0 0 0 89500 53300 " />
<path d="M89150.7 53412.1 A600 600 0.0 0 0 88900 53900 " />
<path d="M88900 53900 A600 600 0.0 0 0 89139.7 54379.8 " />
<path d="M90099.3 53900 A599.294 599.294 0.0 0 0 89868.1 53427.1 " />
<path d="M89868.6 54373.5 A600 600 0.0 0 0 90100 53900 " />
<path d="M89250 53900 A250 250 0.0 0 0 89500 54150 " />
<path d="M89100 53900 A400 400 0.0 0 0 89500 54300 " />
<path d="M89750 53900 A250 250 0.0 0 0 89500 53650 " />
<path d="M89900 53900 A400 400 0.0 0 0 89500 53500 " />
</g>
<g style="fill:#00A0A0; fill-opacity:0.0; 
stroke:#00A0A0; stroke-width:100; stroke-opacity:1; 
stroke-linecap:round; stroke-linejoin:round;">
<path d="M88986.8 53286.3 A800 800 0.0 0 0 88700 53900 " />
<path d="M88701 53900 A799 799 0.0 0 0 89123.7 54604.8 " />
<path d="M90299 53898.6 A798.972 798.972 0.0 0 0 90015.7 53289.7 " />
<path d="M89897.6 54594.2 A800 800 0.0 0 0 90300 53900 " />
<path d="M89120.7 54604.4 A800 800 0.0 0 0 89500 54700 " />
<path d="M89500 54699.6 A799.576 799.576 0.0 0 0 89919 54581 " />
<path d="M95000 53280
L94000 53280
" />
</g>
<g style="fill:#00A0A0; fill-opacity:0.0; 
stroke:#00A0A0; stroke-width:60; stroke-opacity:1; 
stroke-linecap:round; stroke-linejoin:round;">
<path d="M94115.9 54361 A600 600 0.0 0 0 94500 54500 " />
<path d="M94500 54499.3 A599.256 599.256 0.0 0 0 94897.9 54348.1 " />
<path d="M94500 53300.7 A599.27 599.27 0.0 0 0 94110 53445 " />
<path d="M94884.1 53439 A600 600 0.0 0 0 94500 53300 " />
<path d="M94150.7 53412.1 A600 600 0.0 0 0 93900 53900 " />
<path d="M93900 53900 A600 600 0.0 0 0 94139.7 54379.8 " />
<path d="M95099.3 53900 A599.294 599.294 0.0 0 0 94868.1 53427.1 " />
<path d="M94868.6 54373.5 A600 600 0.0 0 0 95100 53900 " />
<path d="M94250 53900 A250 250 0.0 0 0 94500 54150 " />
<path d="M94100 53900 A400 400 0.0 0 0 94500 54300 " />
<path d="M94750 53900 A250 250 0.0 0 0 94500 53650 " />
<path d="M94900 53900 A400 400 0.0 0 0 94500 53500 " />
</g>
<g style="fill:#00A0A0; fill-opacity:0.0; 
stroke:#00A0A0; stroke-width:100; stroke-opacity:1; 
stroke-linecap:round; stroke-linejoin:round;">
<path d="M93986.8 53286.3 A800 800 0.0 0 0 93700 53900 " />
<path d="M93701 53900 A799 799 0.0 0 0 94123.7 54604.8 " />
<path d="M95299 53898.6 A798.972 798.972 0.0 0 0 95015.7 53289.7 " />
<path d="M94897.6 54594.2 A800 800 0.0 0 0 95300 53900 " />
<path d="M94120.7 54604.4 A800 800 0.0 0 0 94500 54700 " />
<path d="M94500 54699.6 A799.576 799.576 0.0 0 0 94919 54581 " />
</g>
<g style="fill:#00A0A0; fill-opacity:0.0; 
stroke:#00A0A0; stroke-width:120; stroke-opacity:1; 
stroke-linecap:round; stroke-linejoin:round;">
<path d="M72500 59000
L70500 59000
" />
<path d="M70500 59000
L69500 60000
" />
<path d="M69500 60000
L69500 62500
" />
<path d="M69500 62500
L70000 63000
" />
<path d="M70000 63000
L73000 63000
" />
<path d="M73000 63000
L73500 62500
" />
<path d="M73500 62500
L73500 60000
" />
<path d="M73500 60000
L72500 59000
" />
<path d="M72480 44000
L70500 44000
" />
<path d="M70500 44000
L70500 43000
" />
<path d="M70500 43000
L72500 43000
" />
<path d="M72500 43000
L72500 44000
" />
<path d="M72500 43750
L72250 44000
" />
</g>
<g style="fill:#808000; fill-opacity:0.0; 
stroke:#808000; stroke-width:39.3701; stroke-opacity:1; 
stroke-linecap:round; stroke-linejoin:round;">
</g>
<g style="fill:#808000; fill-opacity:1.0; 
stroke:#808000; stroke-width:39.3701; stroke-opacity:1; 
stroke-linecap:round; stroke-linejoin:round;">
<polyline style="fill-rule:evenodd;"
points="91755,48244
91755,48755
91244,48755
91244,48244
91755,48244
" /> 
<circle cx="92500" cy="48500" r="255.315" /> 
<circle cx="92500" cy="47500" r="255.315" /> 
<circle cx="94500" cy="59000" r="255.315" /> 
<circle cx="94500" cy="56000" r="255.315" /> 
<circle cx="92500" cy="59000" r="255.315" /> 
<circle cx="92500" cy="56000" r="255.315" /> 
<circle cx="90500" cy="59000" r="255.315" /> 
<circle cx="90500" cy="56000" r="255.315" /> 
<circle cx="89500" cy="45000" r="255.315" /> 
<circle cx="92500" cy="45000" r="255.315" /> 
<circle cx="80500" cy="44000" r="255.315" /> 
<circle cx="80500" cy="41000" r="255.315" /> 
<circle cx="80500" cy="39500" r="205.315" /> 
</g>
<g style="fill:#808000; fill-opacity:1.0; 
stroke:#808000; stroke-width:593; stroke-opacity:1; 
stroke-linecap:round; stroke-linejoin:round;">
<path d="M91500 64203
L91500 64797
" />
<path d="M92500 64203
L92500 64797
" />
<path d="M93500 64203
L93500 64797
" />
<path d="M83000 61703
L83000 62297
" />
<path d="M84000 61703
L84000 62297
" />
<path d="M85000 61703
L85000 62297
" />
<path d="M72203 55000
L72797 55000
" />
<path d="M72203 54000
L72797 54000
" />
</g>
<g style="fill:#808000; fill-opacity:1.0; 
stroke:#808000; stroke-width:39.3701; stroke-opacity:1; 
stroke-linecap:round; stroke-linejoin:round;">
<circle cx="87000" cy="54500" r="310.315" /> 
<circle cx="87000" cy="53500" r="310.315" /> 
<circle cx="92000" cy="54500" r="310.315" /> 
<circle cx="92000" cy="53500" r="310.315" /> 
<circle cx="89500" cy="54500" r="310.315" /> 
<circle cx="89500" cy="53500" r="310.315" /> 
<circle cx="94500" cy="54500" r="310.315" /> 
<circle cx="94500" cy="53500" r="310.315" /> 
<circle cx="71500" cy="59500" r="480.315" /> 
<circle cx="72500" cy="62500" r="480.315" /> 
<circle cx="70500" cy="62500" r="480.315" /> 
<circle cx="72000" cy="43500" r="255.315" /> 
<circle cx="71000" cy="43500" r="255.315" /> 
</g> 
</svg>
